<mxfile host="app.diagrams.net" modified="2021-12-15T09:03:27.146Z" agent="5.0 (Windows NT 10.0; Win64; x64) AppleWebKit/537.36 (KHTML, like Gecko) Chrome/96.0.4664.93 Safari/537.36" etag="krfgCfL8dCELpFw-X2AI" version="15.9.6" type="github">
  <diagram id="Cni0HkYuMX2PbU7y_I5m" name="Page-1">
    <mxGraphModel dx="1778" dy="881" grid="1" gridSize="10" guides="1" tooltips="1" connect="1" arrows="1" fold="1" page="1" pageScale="1" pageWidth="827" pageHeight="1169" math="0" shadow="0">
      <root>
        <mxCell id="0" />
        <mxCell id="1" parent="0" />
        <mxCell id="uxQKZzhiiCZkIp53U5nA-1" value="c" style="verticalLabelPosition=bottom;verticalAlign=top;html=1;shape=mxgraph.basic.rect;fillColor2=none;strokeWidth=5;size=20;indent=5;fillColor=#dae8fc;strokeColor=#6c8ebf;fontFamily=Helvetica;" vertex="1" parent="1">
          <mxGeometry x="304" y="340" width="226" height="500" as="geometry" />
        </mxCell>
        <mxCell id="uxQKZzhiiCZkIp53U5nA-85" style="edgeStyle=orthogonalEdgeStyle;rounded=0;orthogonalLoop=1;jettySize=auto;html=1;entryX=0.499;entryY=0.001;entryDx=0;entryDy=0;entryPerimeter=0;fontFamily=Times New Roman;fontSize=17;" edge="1" parent="1" source="uxQKZzhiiCZkIp53U5nA-4" target="uxQKZzhiiCZkIp53U5nA-1">
          <mxGeometry relative="1" as="geometry" />
        </mxCell>
        <mxCell id="uxQKZzhiiCZkIp53U5nA-4" value="" style="verticalLabelPosition=bottom;verticalAlign=top;html=1;shape=mxgraph.basic.rect;fillColor2=none;strokeWidth=5;size=20;indent=5;fillColor=#f8cecc;strokeColor=#b85450;align=center;" vertex="1" parent="1">
          <mxGeometry x="341.5" y="175" width="151" height="90" as="geometry" />
        </mxCell>
        <mxCell id="uxQKZzhiiCZkIp53U5nA-6" value="" style="verticalLabelPosition=bottom;verticalAlign=top;html=1;shape=mxgraph.basic.rect;fillColor2=none;strokeWidth=1;size=20;indent=5;fillColor=#fff2cc;strokeColor=#d6b656;" vertex="1" parent="1">
          <mxGeometry x="130" y="360" width="70" height="40" as="geometry" />
        </mxCell>
        <mxCell id="uxQKZzhiiCZkIp53U5nA-36" style="edgeStyle=orthogonalEdgeStyle;rounded=0;orthogonalLoop=1;jettySize=auto;html=1;entryX=-0.011;entryY=0.199;entryDx=0;entryDy=0;entryPerimeter=0;fontFamily=Times New Roman;" edge="1" parent="1" source="uxQKZzhiiCZkIp53U5nA-7" target="uxQKZzhiiCZkIp53U5nA-1">
          <mxGeometry relative="1" as="geometry" />
        </mxCell>
        <mxCell id="uxQKZzhiiCZkIp53U5nA-7" value="" style="verticalLabelPosition=bottom;verticalAlign=top;html=1;shape=mxgraph.basic.rect;fillColor2=none;strokeWidth=1;size=20;indent=5;fillColor=#fff2cc;strokeColor=#d6b656;" vertex="1" parent="1">
          <mxGeometry x="130" y="420" width="70" height="40" as="geometry" />
        </mxCell>
        <mxCell id="uxQKZzhiiCZkIp53U5nA-38" style="edgeStyle=orthogonalEdgeStyle;rounded=0;orthogonalLoop=1;jettySize=auto;html=1;fontFamily=Times New Roman;entryX=-0.006;entryY=0.32;entryDx=0;entryDy=0;entryPerimeter=0;" edge="1" parent="1" source="uxQKZzhiiCZkIp53U5nA-8" target="uxQKZzhiiCZkIp53U5nA-1">
          <mxGeometry relative="1" as="geometry">
            <mxPoint x="300" y="500" as="targetPoint" />
          </mxGeometry>
        </mxCell>
        <mxCell id="uxQKZzhiiCZkIp53U5nA-8" value="" style="verticalLabelPosition=bottom;verticalAlign=top;html=1;shape=mxgraph.basic.rect;fillColor2=none;strokeWidth=1;size=20;indent=5;fillColor=#fff2cc;strokeColor=#d6b656;" vertex="1" parent="1">
          <mxGeometry x="130" y="480" width="70" height="40" as="geometry" />
        </mxCell>
        <mxCell id="uxQKZzhiiCZkIp53U5nA-39" style="edgeStyle=orthogonalEdgeStyle;rounded=0;orthogonalLoop=1;jettySize=auto;html=1;entryX=-0.009;entryY=0.441;entryDx=0;entryDy=0;entryPerimeter=0;fontFamily=Times New Roman;" edge="1" parent="1" source="uxQKZzhiiCZkIp53U5nA-9" target="uxQKZzhiiCZkIp53U5nA-1">
          <mxGeometry relative="1" as="geometry" />
        </mxCell>
        <mxCell id="uxQKZzhiiCZkIp53U5nA-9" value="" style="verticalLabelPosition=bottom;verticalAlign=top;html=1;shape=mxgraph.basic.rect;fillColor2=none;strokeWidth=1;size=20;indent=5;fillColor=#fff2cc;strokeColor=#d6b656;" vertex="1" parent="1">
          <mxGeometry x="130" y="540" width="70" height="40" as="geometry" />
        </mxCell>
        <mxCell id="uxQKZzhiiCZkIp53U5nA-40" style="edgeStyle=orthogonalEdgeStyle;rounded=0;orthogonalLoop=1;jettySize=auto;html=1;entryX=-0.008;entryY=0.561;entryDx=0;entryDy=0;entryPerimeter=0;fontFamily=Times New Roman;" edge="1" parent="1" source="uxQKZzhiiCZkIp53U5nA-10" target="uxQKZzhiiCZkIp53U5nA-1">
          <mxGeometry relative="1" as="geometry" />
        </mxCell>
        <mxCell id="uxQKZzhiiCZkIp53U5nA-10" value="" style="verticalLabelPosition=bottom;verticalAlign=top;html=1;shape=mxgraph.basic.rect;fillColor2=none;strokeWidth=1;size=20;indent=5;fillColor=#fff2cc;strokeColor=#d6b656;" vertex="1" parent="1">
          <mxGeometry x="130" y="600" width="70" height="40" as="geometry" />
        </mxCell>
        <mxCell id="uxQKZzhiiCZkIp53U5nA-45" style="edgeStyle=orthogonalEdgeStyle;rounded=0;orthogonalLoop=1;jettySize=auto;html=1;entryX=-0.007;entryY=0.679;entryDx=0;entryDy=0;entryPerimeter=0;fontFamily=Times New Roman;" edge="1" parent="1" source="uxQKZzhiiCZkIp53U5nA-11" target="uxQKZzhiiCZkIp53U5nA-1">
          <mxGeometry relative="1" as="geometry" />
        </mxCell>
        <mxCell id="uxQKZzhiiCZkIp53U5nA-11" value="" style="verticalLabelPosition=bottom;verticalAlign=top;html=1;shape=mxgraph.basic.rect;fillColor2=none;strokeWidth=1;size=20;indent=5;fillColor=#fff2cc;strokeColor=#d6b656;" vertex="1" parent="1">
          <mxGeometry x="130" y="660" width="70" height="40" as="geometry" />
        </mxCell>
        <mxCell id="uxQKZzhiiCZkIp53U5nA-46" style="edgeStyle=orthogonalEdgeStyle;rounded=0;orthogonalLoop=1;jettySize=auto;html=1;entryX=-0.011;entryY=0.8;entryDx=0;entryDy=0;entryPerimeter=0;fontFamily=Times New Roman;" edge="1" parent="1" source="uxQKZzhiiCZkIp53U5nA-12" target="uxQKZzhiiCZkIp53U5nA-1">
          <mxGeometry relative="1" as="geometry" />
        </mxCell>
        <mxCell id="uxQKZzhiiCZkIp53U5nA-12" value="" style="verticalLabelPosition=bottom;verticalAlign=top;html=1;shape=mxgraph.basic.rect;fillColor2=none;strokeWidth=1;size=20;indent=5;fillColor=#fff2cc;strokeColor=#d6b656;" vertex="1" parent="1">
          <mxGeometry x="130" y="720" width="70" height="40" as="geometry" />
        </mxCell>
        <mxCell id="uxQKZzhiiCZkIp53U5nA-47" style="edgeStyle=orthogonalEdgeStyle;rounded=0;orthogonalLoop=1;jettySize=auto;html=1;entryX=-0.005;entryY=0.92;entryDx=0;entryDy=0;entryPerimeter=0;fontFamily=Times New Roman;" edge="1" parent="1" source="uxQKZzhiiCZkIp53U5nA-13" target="uxQKZzhiiCZkIp53U5nA-1">
          <mxGeometry relative="1" as="geometry" />
        </mxCell>
        <mxCell id="uxQKZzhiiCZkIp53U5nA-13" value="" style="verticalLabelPosition=bottom;verticalAlign=top;html=1;shape=mxgraph.basic.rect;fillColor2=none;strokeWidth=1;size=20;indent=5;fillColor=#fff2cc;strokeColor=#d6b656;" vertex="1" parent="1">
          <mxGeometry x="130" y="780" width="70" height="40" as="geometry" />
        </mxCell>
        <mxCell id="uxQKZzhiiCZkIp53U5nA-14" value="" style="verticalLabelPosition=bottom;verticalAlign=top;html=1;shape=mxgraph.basic.rect;fillColor2=none;strokeWidth=1;size=20;indent=5;fillColor=#fff2cc;strokeColor=#d6b656;" vertex="1" parent="1">
          <mxGeometry x="590" y="360" width="70" height="40" as="geometry" />
        </mxCell>
        <mxCell id="uxQKZzhiiCZkIp53U5nA-15" value="" style="verticalLabelPosition=bottom;verticalAlign=top;html=1;shape=mxgraph.basic.rect;fillColor2=none;strokeWidth=1;size=20;indent=5;fontFamily=Helvetica;" vertex="1" parent="1">
          <mxGeometry x="640" y="810" width="90" height="30" as="geometry" />
        </mxCell>
        <mxCell id="uxQKZzhiiCZkIp53U5nA-17" value="button" style="text;strokeColor=none;fillColor=none;html=1;fontSize=17;fontStyle=0;verticalAlign=middle;align=center;fontFamily=Times New Roman;" vertex="1" parent="1">
          <mxGeometry x="645" y="815" width="75" height="20" as="geometry" />
        </mxCell>
        <mxCell id="uxQKZzhiiCZkIp53U5nA-35" style="edgeStyle=orthogonalEdgeStyle;rounded=0;orthogonalLoop=1;jettySize=auto;html=1;entryX=-0.003;entryY=0.081;entryDx=0;entryDy=0;entryPerimeter=0;fontFamily=Times New Roman;" edge="1" parent="1" source="uxQKZzhiiCZkIp53U5nA-6" target="uxQKZzhiiCZkIp53U5nA-1">
          <mxGeometry relative="1" as="geometry" />
        </mxCell>
        <mxCell id="uxQKZzhiiCZkIp53U5nA-42" value="STM32F405" style="text;strokeColor=none;fillColor=none;html=1;fontSize=24;fontStyle=1;verticalAlign=middle;align=center;fontFamily=Times New Roman;" vertex="1" parent="1">
          <mxGeometry x="341.5" y="550" width="140" height="40" as="geometry" />
        </mxCell>
        <mxCell id="uxQKZzhiiCZkIp53U5nA-51" value="Power Supply" style="text;strokeColor=none;fillColor=none;html=1;fontSize=24;fontStyle=1;verticalAlign=middle;align=center;fontFamily=Times New Roman;" vertex="1" parent="1">
          <mxGeometry x="364" y="200" width="100" height="40" as="geometry" />
        </mxCell>
        <mxCell id="uxQKZzhiiCZkIp53U5nA-62" value="Uart1" style="text;strokeColor=none;fillColor=none;html=1;fontSize=10;fontStyle=0;verticalAlign=middle;align=center;fontFamily=Times New Roman;" vertex="1" parent="1">
          <mxGeometry x="130" y="370" width="60" height="20" as="geometry" />
        </mxCell>
        <mxCell id="uxQKZzhiiCZkIp53U5nA-71" value="Uart2" style="text;strokeColor=none;fillColor=none;html=1;fontSize=10;fontStyle=0;verticalAlign=middle;align=center;fontFamily=Times New Roman;" vertex="1" parent="1">
          <mxGeometry x="130" y="430" width="60" height="20" as="geometry" />
        </mxCell>
        <mxCell id="uxQKZzhiiCZkIp53U5nA-72" value="Uart3" style="text;strokeColor=none;fillColor=none;html=1;fontSize=10;fontStyle=0;verticalAlign=middle;align=center;fontFamily=Times New Roman;" vertex="1" parent="1">
          <mxGeometry x="130" y="490" width="60" height="20" as="geometry" />
        </mxCell>
        <mxCell id="uxQKZzhiiCZkIp53U5nA-73" value="Uart4" style="text;strokeColor=none;fillColor=none;html=1;fontSize=10;fontStyle=0;verticalAlign=middle;align=center;fontFamily=Times New Roman;" vertex="1" parent="1">
          <mxGeometry x="135" y="550" width="60" height="20" as="geometry" />
        </mxCell>
        <mxCell id="uxQKZzhiiCZkIp53U5nA-74" value="Uart5" style="text;strokeColor=none;fillColor=none;html=1;fontSize=10;fontStyle=0;verticalAlign=middle;align=center;fontFamily=Times New Roman;" vertex="1" parent="1">
          <mxGeometry x="135" y="610" width="60" height="20" as="geometry" />
        </mxCell>
        <mxCell id="uxQKZzhiiCZkIp53U5nA-75" value="Uart6" style="text;strokeColor=none;fillColor=none;html=1;fontSize=10;fontStyle=0;verticalAlign=middle;align=center;fontFamily=Times New Roman;" vertex="1" parent="1">
          <mxGeometry x="135" y="670" width="60" height="20" as="geometry" />
        </mxCell>
        <mxCell id="uxQKZzhiiCZkIp53U5nA-76" value="Uart7" style="text;strokeColor=none;fillColor=none;html=1;fontSize=10;fontStyle=0;verticalAlign=middle;align=center;fontFamily=Times New Roman;" vertex="1" parent="1">
          <mxGeometry x="135" y="730" width="60" height="20" as="geometry" />
        </mxCell>
        <mxCell id="uxQKZzhiiCZkIp53U5nA-77" value="Uart8" style="text;strokeColor=none;fillColor=none;html=1;fontSize=10;fontStyle=0;verticalAlign=middle;align=center;fontFamily=Times New Roman;" vertex="1" parent="1">
          <mxGeometry x="135" y="790" width="60" height="20" as="geometry" />
        </mxCell>
        <mxCell id="uxQKZzhiiCZkIp53U5nA-78" value="Uart9" style="text;strokeColor=none;fillColor=none;html=1;fontSize=10;fontStyle=0;verticalAlign=middle;align=center;fontFamily=Times New Roman;" vertex="1" parent="1">
          <mxGeometry x="590" y="365" width="70" height="30" as="geometry" />
        </mxCell>
        <mxCell id="uxQKZzhiiCZkIp53U5nA-81" style="edgeStyle=orthogonalEdgeStyle;rounded=0;orthogonalLoop=1;jettySize=auto;html=1;exitX=0.5;exitY=1;exitDx=0;exitDy=0;fontFamily=Times New Roman;fontSize=10;" edge="1" parent="1" source="uxQKZzhiiCZkIp53U5nA-78" target="uxQKZzhiiCZkIp53U5nA-78">
          <mxGeometry relative="1" as="geometry" />
        </mxCell>
        <mxCell id="uxQKZzhiiCZkIp53U5nA-82" value="" style="verticalLabelPosition=bottom;verticalAlign=top;html=1;shape=mxgraph.basic.rect;fillColor2=none;strokeWidth=1;size=20;indent=5;fontFamily=Times New Roman;fontSize=15;" vertex="1" parent="1">
          <mxGeometry x="120" y="190" width="90" height="60" as="geometry" />
        </mxCell>
        <mxCell id="uxQKZzhiiCZkIp53U5nA-84" style="edgeStyle=orthogonalEdgeStyle;rounded=0;orthogonalLoop=1;jettySize=auto;html=1;fontFamily=Times New Roman;fontSize=17;" edge="1" parent="1" source="uxQKZzhiiCZkIp53U5nA-83">
          <mxGeometry relative="1" as="geometry">
            <mxPoint x="340" y="217.5" as="targetPoint" />
          </mxGeometry>
        </mxCell>
        <mxCell id="uxQKZzhiiCZkIp53U5nA-83" value="5V-2A" style="text;strokeColor=none;fillColor=none;html=1;fontSize=24;fontStyle=1;verticalAlign=middle;align=center;fontFamily=Times New Roman;" vertex="1" parent="1">
          <mxGeometry x="120" y="195" width="90" height="45" as="geometry" />
        </mxCell>
        <mxCell id="uxQKZzhiiCZkIp53U5nA-87" value="3,3V" style="text;strokeColor=none;fillColor=none;html=1;fontSize=15;fontStyle=0;verticalAlign=middle;align=center;fontFamily=Times New Roman;" vertex="1" parent="1">
          <mxGeometry x="425.5" y="280" width="38.5" height="40" as="geometry" />
        </mxCell>
        <mxCell id="uxQKZzhiiCZkIp53U5nA-91" value="" style="endArrow=classic;html=1;rounded=0;fontFamily=Times New Roman;fontSize=15;exitX=1;exitY=0.078;exitDx=0;exitDy=0;exitPerimeter=0;entryX=0;entryY=0.45;entryDx=0;entryDy=0;entryPerimeter=0;" edge="1" parent="1" source="uxQKZzhiiCZkIp53U5nA-1" target="uxQKZzhiiCZkIp53U5nA-14">
          <mxGeometry width="50" height="50" relative="1" as="geometry">
            <mxPoint x="550" y="379.58" as="sourcePoint" />
            <mxPoint x="630" y="379.58" as="targetPoint" />
          </mxGeometry>
        </mxCell>
        <mxCell id="uxQKZzhiiCZkIp53U5nA-92" value="" style="endArrow=classic;html=1;rounded=0;fontFamily=Times New Roman;fontSize=15;exitX=1;exitY=0.97;exitDx=0;exitDy=0;exitPerimeter=0;" edge="1" parent="1" source="uxQKZzhiiCZkIp53U5nA-1">
          <mxGeometry width="50" height="50" relative="1" as="geometry">
            <mxPoint x="540" y="825" as="sourcePoint" />
            <mxPoint x="640" y="825" as="targetPoint" />
          </mxGeometry>
        </mxCell>
        <mxCell id="uxQKZzhiiCZkIp53U5nA-93" value="RST" style="text;strokeColor=none;fillColor=none;html=1;fontSize=15;fontStyle=0;verticalAlign=middle;align=center;fontFamily=Times New Roman;" vertex="1" parent="1">
          <mxGeometry x="561.5" y="800" width="38.5" height="30" as="geometry" />
        </mxCell>
        <mxCell id="uxQKZzhiiCZkIp53U5nA-104" value="" style="verticalLabelPosition=bottom;verticalAlign=top;html=1;shape=mxgraph.basic.rect;fillColor2=none;strokeWidth=1;size=20;indent=5;fontFamily=Times New Roman;fontSize=15;fontStyle=1" vertex="1" parent="1">
          <mxGeometry x="590" y="420" width="120" height="60" as="geometry" />
        </mxCell>
        <mxCell id="uxQKZzhiiCZkIp53U5nA-105" value="Led DBG" style="text;strokeColor=none;fillColor=none;html=1;fontSize=21;fontStyle=0;verticalAlign=middle;align=center;fontFamily=Times New Roman;" vertex="1" parent="1">
          <mxGeometry x="600" y="430" width="100" height="40" as="geometry" />
        </mxCell>
        <mxCell id="uxQKZzhiiCZkIp53U5nA-117" value="" style="verticalLabelPosition=bottom;verticalAlign=top;html=1;shape=mxgraph.basic.rect;fillColor2=none;strokeWidth=1;size=20;indent=5;fontFamily=Times New Roman;fontSize=21;" vertex="1" parent="1">
          <mxGeometry x="590" y="510" width="60" height="130" as="geometry" />
        </mxCell>
        <mxCell id="uxQKZzhiiCZkIp53U5nA-118" value="" style="verticalLabelPosition=bottom;verticalAlign=top;html=1;shape=mxgraph.basic.rect;fillColor2=none;strokeWidth=1;size=20;indent=5;fontFamily=Times New Roman;fontSize=21;" vertex="1" parent="1">
          <mxGeometry x="590" y="650" width="60" height="130" as="geometry" />
        </mxCell>
        <mxCell id="uxQKZzhiiCZkIp53U5nA-119" value="" style="endArrow=classic;html=1;rounded=0;fontFamily=Times New Roman;fontSize=21;" edge="1" parent="1">
          <mxGeometry width="50" height="50" relative="1" as="geometry">
            <mxPoint x="530" y="574.81" as="sourcePoint" />
            <mxPoint x="590" y="574.81" as="targetPoint" />
          </mxGeometry>
        </mxCell>
        <mxCell id="uxQKZzhiiCZkIp53U5nA-120" value="" style="endArrow=classic;html=1;rounded=0;fontFamily=Times New Roman;fontSize=21;" edge="1" parent="1">
          <mxGeometry width="50" height="50" relative="1" as="geometry">
            <mxPoint x="530" y="710" as="sourcePoint" />
            <mxPoint x="590" y="710" as="targetPoint" />
          </mxGeometry>
        </mxCell>
        <mxCell id="uxQKZzhiiCZkIp53U5nA-122" value="GPIO" style="text;strokeColor=none;fillColor=none;html=1;fontSize=24;fontStyle=1;verticalAlign=middle;align=center;fontFamily=Times New Roman;" vertex="1" parent="1">
          <mxGeometry x="580" y="555" width="80" height="30" as="geometry" />
        </mxCell>
        <mxCell id="uxQKZzhiiCZkIp53U5nA-123" value="GPIO" style="text;strokeColor=none;fillColor=none;html=1;fontSize=24;fontStyle=1;verticalAlign=middle;align=center;fontFamily=Times New Roman;" vertex="1" parent="1">
          <mxGeometry x="580" y="700" width="80" height="30" as="geometry" />
        </mxCell>
        <mxCell id="uxQKZzhiiCZkIp53U5nA-124" value="" style="endArrow=classic;html=1;rounded=0;fontFamily=Times New Roman;fontSize=21;" edge="1" parent="1">
          <mxGeometry width="50" height="50" relative="1" as="geometry">
            <mxPoint x="530" y="449.40999999999997" as="sourcePoint" />
            <mxPoint x="590" y="449.40999999999997" as="targetPoint" />
            <Array as="points">
              <mxPoint x="590" y="449.6" />
            </Array>
          </mxGeometry>
        </mxCell>
        <mxCell id="uxQKZzhiiCZkIp53U5nA-125" value="" style="verticalLabelPosition=bottom;verticalAlign=top;html=1;shape=mxgraph.basic.rect;fillColor2=none;strokeWidth=1;size=20;indent=5;fontFamily=Times New Roman;fontSize=21;" vertex="1" parent="1">
          <mxGeometry x="332" y="870" width="170" height="60" as="geometry" />
        </mxCell>
        <mxCell id="uxQKZzhiiCZkIp53U5nA-126" value="LCD" style="text;strokeColor=none;fillColor=none;html=1;fontSize=24;fontStyle=1;verticalAlign=middle;align=center;fontFamily=Times New Roman;" vertex="1" parent="1">
          <mxGeometry x="365.5" y="880" width="100" height="40" as="geometry" />
        </mxCell>
      </root>
    </mxGraphModel>
  </diagram>
</mxfile>
